<svg xmlns="http://www.w3.org/2000/svg" id="Camada_1" data-name="Camada 1" viewBox="0 0 2043 522"><defs><style>.cls-1{fill:#e41334;}</style></defs><path class="cls-1" d="M590.9,358.27c-.91-3-1.82-3.59-4.85-3.29h-2.42c-7.28.9-14.85.3-22.43,0-1.82-.3-2.42-1.2-2.42-2.7V294.47c-.3-5.69.3-11.38-.61-17.08-.3-3.59-1.21-7.48-.3-11.08a19.51,19.51,0,0,0,0-4.19,116.28,116.28,0,0,1,0-25.16,36,36,0,0,0,.91-6c-.3-6.89.3-13.78,0-20.37-.61-19.77.6-39.24-.61-59-.6-5.39-1.21-10.79-.3-15.88.3-2.39-.91-3-2.73-3.29-.6,0-1.51-.3-2.42-.3a115.38,115.38,0,0,1-14.24-.6c-1.22,0-2.73,0-3.64,1.2-.91.89-1.82.6-2.73,0a6.65,6.65,0,0,0-1.51-.9c-2.73-1.2-5.15,0-7.58,1.2-2.12,1.2-2.42,3-2.12,5.09.3,7.49.3,15,.61,22.46,0,2.1.6,3.9.3,5.7a118.39,118.39,0,0,0-.91,14.67c0,4.8.3,9.59-.91,14.38a6.1,6.1,0,0,0,0,3.29c1.52,4.8,1.21,9.59,1.21,14.38.31,11.09.31,21.87.31,32.95,0,10.79,0,21.87,1.21,32.65v.9c-1.21,2.7-.61,5.39,0,8.09a22.09,22.09,0,0,1,0,6.29c-.91,3.59-.61,6.89-.61,10.48a38.64,38.64,0,0,1,0,6c-.6,8.09-1.51,16.18.61,24.27a5.08,5.08,0,0,1,.3,2.09c.31,4.2.91,8.39-.3,12.58-.61,2.4.3,5.1,0,7.49a27,27,0,0,0,0,9.89c0,.9.3,2.1-.3,3-2.13,6-.61,12.29-.91,18.28a2.7,2.7,0,0,0,3,3c5.75,0,11.82.3,17.57.3,8.79-.3,17.27,0,26.06-.3,10-.3,20,0,29.7-1.5,3-.3,3.94-1.49,2.72-4.19C597.26,376.24,593.63,367.26,590.9,358.27Z"/><path class="cls-1" d="M735.12,366.06a332.7,332.7,0,0,1-7.87-49.12c-.31-4.8-.61-9.59-2.43-14.38v-2.1c-.91-6.29-2.73-12.58-2.42-19.17a.92.92,0,0,0-.31-.6c-2.42-5.39-2.42-11.08-3.33-16.77-1.21-8.69-2.42-17.38-3.94-26.06-.6-4.2-2.12-8.09-2.73-12.29-1.51-9.88-2.72-20.07-5.45-29.65-1.21-5.69-3-11.38-3.33-17.07a139.56,139.56,0,0,0-.91-15.58c-1.21-6.89-2.43-13.78-4.85-20.37a31.53,31.53,0,0,1-1.51-5.69c-.31-3.6-.31-3.6-3.64-4.79a12.53,12.53,0,0,0-3.33-.3c-4.25-.3-8.19,0-12.43-.6-3.64-.3-7.57-.3-11.51-.9-6.06-1.2-8.79,1.8-9.7,7.19-1.82,9.88-5.15,19.47-6.06,29.95-.91,10.19-3.64,20.67-5.76,30.85-.6,3.6-1.21,7.19-.6,11.09a9.44,9.44,0,0,1-1.22,6.29c-1.51,1.8-2.11,4.19-2.72,6.29-.91,3.89-1.82,8.09-2.43,12-.6,5.39-1.81,10.79-2.12,16.18a116.65,116.65,0,0,1-2.12,14.37l-1.82,7.79c-2.42,9.89-1.82,20.07-4.84,29.66a5.42,5.42,0,0,1-1,1.93l-1.09.63a3.68,3.68,0,0,1-.94.13,49.43,49.43,0,0,1-6.67,0c-2.73,0-5.15.6-7.88,0-1.52,0-2.42.9-2.42,2.7a20.36,20.36,0,0,0,1.51,7.19,25.65,25.65,0,0,1,1.52,8.38,12.39,12.39,0,0,0,.91,5.7c.6,1.79.9,3.89,1.51,5.69,1.21,4.79,2.12,5.39,7.27,5.39h.91c1.21-.3,1.82.3,1.82,1.5a4.41,4.41,0,0,1-.3,2.09c-1.82,14.08-3.94,28.46-7,42.54a5.64,5.64,0,0,0-.61,2.39c-.3,2.1,0,2.7,2.12,2.7,1.82,0,3.64-.3,5.15-.3a99.42,99.42,0,0,0,16.37,0,27.89,27.89,0,0,1,4.84.3c3,.6,4.85-.3,6.37-3a16.63,16.63,0,0,0,1.82-6.28c.3-1.8.3-3.9.6-6,.61-5.09,2.12-9.88,3-15,1.21-6,2.12-12,3-18.27a3.9,3.9,0,0,1,3.64-3.6,16.69,16.69,0,0,1,5.45.3,63.9,63.9,0,0,0,7.58,0,138.18,138.18,0,0,1,15.76-.3c4.24,0,5.45,1.5,5.75,5.39.61,8.09,2.73,16.18,4.24,24,.31,3,1.22,6,1.52,9,.3,3.9.61,7.49,2.42,11.08a5.15,5.15,0,0,0,6.67,2.7c6.36-3,13-1.2,19.39-.9,3.64.3,6.37.6,9.4-1.49.91-.9,1.21-1.5.91-2.4C737.25,379.54,736.64,372.65,735.12,366.06Zm-74.94-62.33a4.77,4.77,0,0,1,.1-2.37c1.52-7.49,1.82-15.28,3.94-22.77,1.51-6,2.12-12.28,3.33-18.57.91-6,1.52-11.68,3.34-17.37,1.21-3.9.6-8.09,1.21-12.28a150.55,150.55,0,0,0,2.73-16.78c0-.6-.31-1.2.6-1.2.61,0,.91.6,1.21.9.91,3,1.21,6.29,1.82,9.29,1.82,12,2.12,24,3.33,36.24.91,11.68,2.43,23.37,4.24,35.05.61,3.3-.3,6.29.91,9.58a.68.68,0,0,1-.1.67C679.6,303.85,669.71,303.14,660.18,303.73Zm1.36-134a.5.5,0,0,1-.14-.51C661.45,169.43,661.49,169.6,661.54,169.77Z"/><path class="cls-1" d="M901.65,131.88a41.89,41.89,0,0,0-8.79.6,64,64,0,0,1-20,.6c-5.15-.6-6.06.3-7,5.39,0,.6-.3.9,0,1.5.61,3-.3,6-.3,9-.3,8.09-.61,15.88-1.51,24-1.21,9.88-.61,20.07-2.12,30-.91,6.59-.31,13.48-1.22,20.37a120.94,120.94,0,0,0-1.21,15c-.3,9-1.51,18.27-1.82,27.25-.6,8.39-2.12,16.48-2.42,24.87-.3,6-2.12,12-2.12,18.27v.6a47.45,47.45,0,0,0-1.82,14.68,5.82,5.82,0,0,1-.3,2.39c0,.6-.31,1.5-1.21,1.5-.61,0-.61-.9-.91-1.5-.2-.89-.32-1.83-.49-2.75-.1-.72-.23-1.45-.38-2.19-.42-2.67-.77-5.35-.95-7.94-1.82-12.88-4.55-25.16-6.36-38-.91-9-2.73-18-3-27,0-4.49-1.51-8.69-1.81-13.18-.61-14.08-2.13-27.86-3.64-41.94-1.21-11.38-2.73-22.76-3.64-34.14a48.76,48.76,0,0,0-.6-6.59c-.61-5.1-1.52-10.19-1.52-15.28,0-3-.6-3.89-3.33-4.49a14.89,14.89,0,0,0-3.63-.3,49.49,49.49,0,0,1-6.67,0,41,41,0,0,0-12.12,0c-3.33.3-6.67.6-10-.6-1.82-.6-3.64.9-3.94,3a5.65,5.65,0,0,0,.6,2.4c3.34,11.08,4.55,22.47,5.16,33.85.6,10.18,2.42,20.37,3.33,30.55.61,6.29,2.12,12.28,2.42,18.57.3,5.7,1.82,11.09,1.52,16.78a29.84,29.84,0,0,0,.91,9,242.46,242.46,0,0,1,3.94,25.77c1.21,9.58,2.12,19.46,3.33,29.05.6,5.09,2.12,9.89,2.12,15-.3,3.29,1.21,6.59.91,9.88-.91,6,.6,11.68,1.51,17.08,1.22,6.59,2.13,13.18,3.34,19.77,1.51,6.29,1.51,13.18,2.73,19.76.6,2.4.91,5.1,2.72,6.89.61.9,1.21,2.1,2.12,1.8,3.34-.6,6.36.9,9.7.9h16.67v-.3h17c5.16,0,6.37-1.2,7-6.29a64.29,64.29,0,0,0,.91-10.78c.31-3,.31-6.29.91-9.29,1.52-6.89,1.82-14.08,2.73-21,.6-3.59,1.21-7.19,1.51-10.78.61-6.59,1.22-13.48,2.43-20.07,1.51-8.68,1.51-17.07,3-25.46.91-5.69,1.21-11.68,1.81-17.67,1.22-9.29,1.22-18.57,3.34-27.86,2.12-8.09,1.82-16.77,3.33-24.86,1.52-9,1.82-17.67,2.73-26.66.61-11.38,3-22.47,4.24-33.85,1.21-7.49,1.82-15.28,3-22.76C903.77,132.48,903.47,131.58,901.65,131.88Z"/><path class="cls-1" d="M1031.63,386.49c-2.12-6.89-2.72-13.78-4.24-20.37a332.72,332.72,0,0,1-7.88-49.12c-.3-4.8-.61-9.59-2.42-14.38v-2.1c-.91-6.29-2.73-12.58-2.43-19.17a.93.93,0,0,0-.3-.6c-2.42-5.39-2.42-11.08-3.33-16.77-1.22-8.69-2.43-17.38-3.94-26.06-.61-4.2-2.12-8.09-2.73-12.28-1.51-9.89-2.73-20.07-5.45-29.66-1.22-5.69-3-11.38-3.34-17.07a139.63,139.63,0,0,0-.9-15.58c-1.22-6.89-2.43-13.78-4.85-20.37a30.72,30.72,0,0,1-1.52-5.69c-.3-3.59-.3-3.59-3.64-4.79a12.53,12.53,0,0,0-3.33-.3c-4.24-.3-8.18,0-12.42-.6-3.64-.3-7.58-.3-11.52-.9-6.06-1.2-8.78,1.8-9.69,7.19-1.82,9.88-5.16,19.47-6.06,29.95-.91,10.19-3.64,20.67-5.76,30.86-.61,3.59-1.21,7.19-.61,11.08a9.43,9.43,0,0,1-1.21,6.29c-1.51,1.8-2.12,4.19-2.73,6.29-.91,3.89-1.82,8.09-2.42,12-.6,5.39-1.82,10.79-2.12,16.18a119,119,0,0,1-2.12,14.38l-1.82,7.78c-2.43,9.89-1.82,20.07-4.85,29.66-.61,1.79-1.21,2.69-3,2.69a49.44,49.44,0,0,1-6.67,0c-2.72,0-5.15.6-7.87,0-1.52,0-2.43.9-2.43,2.7a20.38,20.38,0,0,0,1.52,7.19,25.65,25.65,0,0,1,1.51,8.38,12.66,12.66,0,0,0,.91,5.7c.61,1.79.91,3.89,1.51,5.69,1.22,4.79,2.13,5.39,7.28,5.39h.91c1.21-.3,1.82.3,1.82,1.5a4.32,4.32,0,0,1-.31,2.1c-1.82,14.07-3.94,28.45-7,42.53a5.65,5.65,0,0,0-.6,2.4c-.31,2.09,0,2.69,2.12,2.69,1.82,0,3.63-.3,5.15-.3a99.3,99.3,0,0,0,16.36,0,28,28,0,0,1,4.85.3c3,.6,4.85-.3,6.36-3a16.37,16.37,0,0,0,1.82-6.29c.3-1.8.3-3.9.61-6,.6-5.09,2.12-9.88,3-15,1.21-6,2.12-12,3-18.27a3.89,3.89,0,0,1,3.63-3.6,16.75,16.75,0,0,1,5.46.3,63.73,63.73,0,0,0,7.57,0,138.22,138.22,0,0,1,15.76-.3c2.77,0,4.24.66,5,2.18a7.56,7.56,0,0,0,.09,5.2c.46,1.1.86,2.21,1.28,3.32.91,6.31,2.44,12.57,3.62,18.66.3,3,1.21,6,1.52,9,.3,3.9.6,7.49,2.42,11.09a5.15,5.15,0,0,0,6.67,2.69c6.36-3,13-1.2,19.39-.9,3.64.3,6.36.6,9.39-1.49C1031.63,388,1031.93,387.39,1031.63,386.49Zm-78.1-81.92c-1-.22-1.29-.75-1.16-2a9.42,9.42,0,0,0,.81-4.85c1-6.32,1.53-12.77,3.3-19,1.52-6,2.13-12.28,3.34-18.57.9-6,1.51-11.68,3.33-17.37,1.21-3.89.61-8.09,1.21-12.28a150.55,150.55,0,0,0,2.73-16.78c0-.6-.3-1.2.61-1.2.6,0,.91.6,1.21.9.91,3,1.21,6.29,1.82,9.29,1.82,12,2.12,24,3.33,36.25.91,11.68,2.42,23.36,4.24,35,.61,3.3-.3,6.29.91,9.59.3,1.2-1.21.89-1.82.89a71.23,71.23,0,0,1-11.51,0l-1.22.43C961,304.64,957.26,304.52,953.53,304.57Z"/><path class="cls-1" d="M1145.25,318.49a3.6,3.6,0,0,0-2.42-4.19c-5.46-.6-10.61-2.7-16.06-1.2a46.32,46.32,0,0,1-9.09.6h-7.27c-1.82,0-2.43.6-2.43,2.7a85.82,85.82,0,0,1,.91,9.28c.3,5.09-.91,10.19-.61,15.28,0,4.19.31,8.69-.3,12.88a5.56,5.56,0,0,1-3.64,4.79c-2.72,1.2-5.45,2.1-8.18,3-4.24,1.49-7.57-.6-10.6-2.4-2.73-1.5-4.85-3-4.85-6.29a9.57,9.57,0,0,0-.91-2.7,2.84,2.84,0,0,1-.3-2.69c1.21-2.1.91-4.49,0-6.89a5,5,0,0,1-.31-2.1c.91-4.19.31-8.39.31-12.58-.31-24.56-.31-49.12-.31-73.69,0-10.18.91-20.36,1.52-30.55.31-9.29-.3-18.87,0-28.16a2.69,2.69,0,0,0-.3-1.49c-1.22-2.7-.61-5.7-.31-8.69a22.61,22.61,0,0,0,.61-4.79V168.12a7.79,7.79,0,0,1,3-6,16.12,16.12,0,0,1,12.73-3.59l4.85,1.2c3.93,1.2,6.06,3.89,6.36,8.08,0,6,0,12,.3,17.68,0,.71.07,1.4.11,2.11a7.61,7.61,0,0,0,.12,2.22,157,157,0,0,1,.38,15.74,12.11,12.11,0,0,0,1.21,7.19,3,3,0,0,0,3.94,1.49l2.42-.9c7.88-3.89,15.76-8.38,23.94-11.68a4,4,0,0,0,2.73-3.59,320.57,320.57,0,0,0,1.82-41.64,4.34,4.34,0,0,0-.61-2.1,62.91,62.91,0,0,0-6.06-10.78,26.15,26.15,0,0,0-16.36-11.08,21.18,21.18,0,0,1-3.94-1.5c-2.12-1.5-4.55-1.8-7.27-1.8a45.5,45.5,0,0,1-14.25-1.49h-6.06a16.74,16.74,0,0,1-8.48,1.79,33.62,33.62,0,0,0-9.39,1.2c-8,1.85-15.1,5.11-20.41,11a22.23,22.23,0,0,0-2,2.4l-.07.08-.06.09c-.27.39-.55.77-.8,1.17-2,2.83-4.25,5.57-4,9.22a1.57,1.57,0,0,1-.61,1.2c-2.12,3-2.12,6-1.52,9.29,1.22,6.59.61,13.18.61,19.47.3,9.28-.3,18.57.61,27.85v.1c-.29,7.43-.28,15-.1,22.5a14.37,14.37,0,0,1-.21,1.67c-.6,4.49.91,9,.61,13.48-1.21,9-.3,18-.91,27,0,.9.3,1.79.3,3a8.5,8.5,0,0,1,.31,3.9c-1.11,3.27-.72,6.54-.64,9.81a185.86,185.86,0,0,0-.87,26.62,8.94,8.94,0,0,0,.26,1.71c-.25,4.66.94,9.32.94,14-.3,6.59,0,12.88-.3,19.17-.3,8.68,3,16.17,7.57,23.36a6.21,6.21,0,0,0,2.13,1.8c4.84,3,9.69,6.29,14.84,9.58a30,30,0,0,0,16.67,4.2,46.69,46.69,0,0,1,11.21,0c1.82,0,3.64-.3,5.46-.3,4.54-.3,9.09-1.5,13.63-1.8,6.67-.3,11.51-3,16.67-7.49,7-6.29,10.3-14.08,12.42-22.76.91-5.1.3-10.49.3-15.58C1144.34,337.06,1143.74,327.78,1145.25,318.49Z"/><path class="cls-1" d="M1285.54,386.49c-2.12-6.89-2.73-13.78-4.24-20.37a331.4,331.4,0,0,1-7.88-49.12c-.3-4.8-.61-9.59-2.43-14.38v-2.1c-.91-6.29-2.72-12.58-2.42-19.17a.93.93,0,0,0-.3-.6c-2.43-5.39-2.43-11.08-3.34-16.77-1.21-8.69-2.42-17.38-3.94-26.06-.6-4.2-2.11-8.09-2.72-12.28-1.52-9.89-2.73-20.07-5.46-29.66-1.21-5.69-3-11.38-3.33-17.07a137.34,137.34,0,0,0-.91-15.58c-1.21-6.89-2.42-13.78-4.85-20.37a31.53,31.53,0,0,1-1.51-5.69c-.3-3.59-.3-3.59-3.64-4.79a12.53,12.53,0,0,0-3.33-.3c-4.24-.3-8.18,0-12.42-.6-3.64-.3-7.58-.3-11.52-.9-6.06-1.2-8.78,1.8-9.69,7.19-1.83,9.88-5.16,19.47-6.07,29.95-.91,10.19-3.63,20.67-5.75,30.86-.61,3.59-1.21,7.19-.61,11.08a9.49,9.49,0,0,1-1.21,6.29c-1.52,1.8-2.12,4.19-2.73,6.29-.91,3.89-1.82,8.09-2.42,12-.61,5.39-1.82,10.79-2.12,16.18a117.13,117.13,0,0,1-2.13,14.38l-1.81,7.78c-2.4,9.77-1.85,19.83-4.76,29.31-.71,1-1.48,2-2.3,2.92a3.37,3.37,0,0,1-.82.12,49.43,49.43,0,0,1-6.67,0c-2.73,0-5.15.6-7.88,0-1.51,0-2.42.9-2.42,2.7a20.38,20.38,0,0,0,1.52,7.19,25.91,25.91,0,0,1,1.51,8.38,12.52,12.52,0,0,0,.91,5.7c.6,1.79.91,3.89,1.51,5.69,1.22,4.79,2.12,5.39,7.28,5.39h.91c1.21-.3,1.81.3,1.81,1.5a4.45,4.45,0,0,1-.3,2.1c-1.82,14.07-3.94,28.45-7,42.53a5.65,5.65,0,0,0-.61,2.4c-.3,2.09,0,2.69,2.13,2.69,1.81,0,3.63-.3,5.15-.3a99.3,99.3,0,0,0,16.36,0,28,28,0,0,1,4.85.3c3,.6,4.85-.3,6.36-3a16.55,16.55,0,0,0,1.82-6.29c.3-1.8.3-3.9.61-6,.6-5.09,2.12-9.88,3-15,1.22-6,2.13-12,3-18.27a3.88,3.88,0,0,1,3.63-3.6,16.75,16.75,0,0,1,5.46.3,63.73,63.73,0,0,0,7.57,0,138.22,138.22,0,0,1,15.76-.3c4.24,0,5.45,1.5,5.76,5.39.6,8.09,2.72,16.18,4.24,24,.3,3,1.21,6,1.52,9,.3,3.9.6,7.49,2.42,11.09a5.15,5.15,0,0,0,6.66,2.69c6.37-3,13-1.2,19.4-.9,3.63.3,6.36.6,9.39-1.49C1285.54,388,1285.84,387.39,1285.54,386.49Zm-75.15-107.84c1.52-6,2.12-12.28,3.33-18.57.91-6,1.52-11.68,3.34-17.37,1.21-3.89.6-8.09,1.21-12.28a150.55,150.55,0,0,0,2.73-16.78c0-.6-.31-1.2.6-1.2.61,0,.91.6,1.22.9.91,3,1.21,6.29,1.82,9.29,1.81,12,2.11,24,3.33,36.25.91,11.68,2.42,23.36,4.24,35,.61,3.3-.3,6.29.91,9.59.3,1.2-1.21.89-1.82.89a71.23,71.23,0,0,1-11.51,0,7.44,7.44,0,0,1-2.13.6c-3.33,0-4.54-.29-8.18-.29-2.27,0-3.18-.17-3.24-1.52h0a7.89,7.89,0,0,1,.21-1.78C1208,293.93,1208.27,286.14,1210.39,278.65Z"/><path class="cls-1" d="M1468.77,132a3.68,3.68,0,0,1,1.51,3.32v58.33c0,4.53-.3,9.06,0,13.9,0,3.93-.6,8.16-.3,12.39s.3,8.46.3,12.69-.6,8.47,0,12.39c.6,3.33.3,6.65,1.21,10,.91,2.72.3,5.74.6,8.46.31,4.83.91,9.67.61,14.81l-.91,18.13a18.72,18.72,0,0,0,.3,4.23c.31,3.32.91,6.35.61,9.67-.3,9.07,1.21,17.83,1.21,26.59,0,4.54,0,9.07-.31,13.3s.31,8.46,0,12.39c-.6,4.23-.3,8.16-.3,12.39v6.35c-.3,2.12-1.51,3.93-1.21,6,.31.31.31.61.31,1.51-3.33.91-5.75,4.54-10,2.42-4.23,1.51-8.16-.3-11.78-1.21-2.42-.6-6.05.61-7.86.31h-5.14c-2.72-1.21-3.32-3.93-3.93-6.05-2.42-9.37-5.13-18.74-7-28.1-.6-2.12-2.11-3.93-2.72-6.05a92,92,0,0,0-5.14-18.43,105.54,105.54,0,0,1-4.83-12.39c-1.81-4.54-2.42-9.37-3.63-13.91C1407.72,296.4,1405,287,1402,278a155,155,0,0,1-3.93-17.83l-2.42-2.72c1.21-.6-1.51-1.81.61-2.41l-2.42-2.72c1.21-.91-.6-1.82.3-2.72l-1.81-2.12c.3-3.93-1.81-6.34-3.63-9.67-1.81,2.42-.9,5.14-.6,6.65,1.21,9.37.6,18.74.6,28.1.31,4.24.61,8.16,1.21,12.39a153.25,153.25,0,0,1,.3,20.55c-.3,1.21.31,2.72.31,3.93-.31,10.28.3,20.25.9,30.53,0,1.51.31,3.32-1.21,4.83,1.52,3,1.21,6.05,1.52,9.07l.6,18.13v11.18c-.3,1.51-1.51,1.82-1.81,3,0,.91,1.21,1.82.6,3-.91,1.51-4.23,2.41-6,1.21-2.42-1.52-4.23-.31-6.65-.61-1.21.91-8.16,1.51-13,.61-3.93-.61-6.34-.91-10,.9-1.51,0-2.12-1.21-3-2.42.3-6.95-.3-13.9.6-21.15a99.26,99.26,0,0,0,0-19,77.34,77.34,0,0,1,0-11.79c0-2.41.3-4.53-.6-6.64-.91-3,.6-6.05.3-9.07-.6-3.32,0-7.25-.6-10.58a42.16,42.16,0,0,1,0-15.11,24.68,24.68,0,0,0,0-6.65c-.31-1.81.9-14.8.9-16.62.61-3.62-.9-7.55-1.21-11.48-.6-6.05.31-12.09.31-18.13-.31-10.28-.31-20.55-.91-31.13-.3-4.53.6-9.37.6-14.21.61-5.74,0-11.78.61-17.83a51.15,51.15,0,0,0,.3-11.78c0-1.51,0-3,.91-4.23-.61-.91-1.51-1.51-1.21-2.12.6-3.93-.61-7.55,0-11.18.9-4.84.3-10,0-14.81,0-1.51,1.51-2.11,2.42-3a2.72,2.72,0,0,1,3.32.3c4.53-1.81,5.74-.3,13.9-.3,4.84-3,10.28.91,15.11-.91a4.37,4.37,0,0,1,2.72,3.33,69.55,69.55,0,0,0,3.63,11.18c1.81,3.93,2.11,8.16,4.23,11.79,1.51,3,1.81,6.64,2.72,10,2.42,7.85,3.93,15.71,6.65,23.57,1.51,4.23,2.11,9.07,4.23,13s3.32,8.47,5.14,12.4a4.47,4.47,0,0,1,.9,2.11c0,3.63,1.51,7,3,10.28,1.2,3,3.92,16.92,5.44,19.94,2.41,4.23,3.32,9.07,4.53,13.9.6,2.72,2.72,4.84,1.21,7.86.3.61.9,1.21,1.81.61a46,46,0,0,0,1.81,6.64,71.61,71.61,0,0,0-.3-18.13,10.34,10.34,0,0,1-.3-3c.91-6.95-.91-24.78-.91-32,0-7.85.3-16-.3-24.17-.3-3.93-.3-7.86-1.21-11.79-.3-2.72-.91-5.74.3-8.46a10,10,0,0,0,.31-3c0-6.65.3-13.6,0-20.25,0-6.35.9-12.69,0-18.74-.31-2.41-.61-4.83,1.81-7.55C1446.1,132.3,1457.59,132,1468.77,132Z"/><path class="cls-1" d="M1574.85,133.81a29.36,29.36,0,0,1,0,5.14c-.6,8.16.91,16.32-.3,24.78-5.44,1.51-10.88,2.72-16.62,2.42a29.5,29.5,0,0,0-5.14.3,8.88,8.88,0,0,0-3.33,1.21c-3.92-1.51-8.16-1.51-12.39-.91-1.51,1.21-1.21,3-1.21,4.84a46.47,46.47,0,0,1,.31,13v.91c2.41,13.9.3,28.1.9,42.31.31,3-.3,6,.91,8.76a56.12,56.12,0,0,0,18.74.3l7.55-.9a5,5,0,0,1,4.23,1.81c2.12,2.42-.6,4.53.61,6.65s-1.51,4.23,0,6.65c-.91,2.11.3,4.23.3,6.34a49.19,49.19,0,0,1,0,6.65V271a2.39,2.39,0,0,1-2.42,1.51l-26,.91a8.68,8.68,0,0,0-2.72.61c-1.81,7.85-.3,16.32-2.11,25.38,1.21,3.33,1.51,7.56,1.51,12.09,0,8.76-.3,17.53,0,26.29,0,2.72-.3,5.14.9,7.56a47.14,47.14,0,0,1,.91,6.95,24.87,24.87,0,0,1,6.65-.3c1.81,0,3.93.9,5.74,1.2,8.16-2.41,16.93-.9,25.09-1.2,1.81,1.2.9,3.32,1.81,4.83-.61,6.65-.61,13.3-.61,20.25,0,3.32,0,6.65-.3,10a11.32,11.32,0,0,1-1.21,2.72c-2.72,1.51-5.44,1.21-7.85,1.21a87.94,87.94,0,0,0-23.58,1.21c-3.62.6-7.55.3-10-1.21-3,.3-5.14,1.21-7.55,1.21-3.33-.3-6.65-2.12-10-.61-3.32-1.2-6.65-.3-10-.6-2.72-.3-5.44,0-7.25-2.42-.91-1.21-.61-2.42-.61-3.93.3-5.13,0-10.27,0-15.11v-6.95c.3-2.11,0-4.53.91-6.65.91-2.41-1.51-4.23-.3-6.64,1.51-2.72-.31-5.44-.31-8.16,0-22.06-.3-44.13-.6-66.19-1.51-2.72-4.84-.3-7.56-2.72-.6-4.53-1.81-10-2.41-15.71-.61-5.14-2.12-10.58-3-15.41a11.64,11.64,0,0,1,3.93-4.54c2.72-.6,5.74.3,8.47-.9,1.81-13.91,1.2-26.3-.61-34.16,2.12-6,1.81-12.39,1.81-18.43v-13.6c0-2.11-.3-3.93.91-5.44a13.07,13.07,0,0,1-1.21-4.23c-.3-3,0-6.35,0-9.37-.3-3,0-6-.9-9.37a16.1,16.1,0,0,1,.3-10,3.23,3.23,0,0,1,2.42-.6c4.83.9,10-.61,15.11,1.51a5.76,5.76,0,0,0,3.92-.3c2.72-1.21,5.75.9,8.16-.61,12.39,2.12,25.09.3,37.48.91,1.81.3,3.62-.61,5.74-1.21C1573.94,132,1574.55,132.9,1574.85,133.81Z"/><path class="cls-1" d="M1632.88,281.29c-.31.9.6,1.81,1.2,2.72-2.11,2.42.61,5.74-1.51,8.76,0,.91,1.21,1.82,1.21,2.12.3,1.81-.9,2.11-.9,2.72a4.32,4.32,0,0,0,.9.6v16.93c0,.3-.3.3-.3.6.3.61.6.61.6.61-1.81,3.62-.3,6.95-.3,10.57,0,3.33.3,6.35.61,9.67a70.08,70.08,0,0,1-.91,7.86,42.8,42.8,0,0,0,1.51,13.6c7.25,3,14.81,5.74,22.67,1.81,2.41-2.41,1.21-5.13,1.21-7.55a138.77,138.77,0,0,0,.3-15.72V323.3a114,114,0,0,1,.3-17.53c.3-2.42-1.21-4.84,0-7.56.6-1.51.6-3.32,2.12-4.83a7.91,7.91,0,0,0-2.12-.61c-.3-3.93.91-11.48-.3-15.71-4.84-.91-10.28,1.21-15.11-1.82-1.51-8.15-1.21-16.32-1.21-24.78,0-2.11.91-3.93.3-6.34-.3-1.51,1.81-3.33,3.63-3,7.55.3,15.11-.61,22.36.3,6,.9,12.09.3,17.83.3a26.8,26.8,0,0,1,4.84.6,8.07,8.07,0,0,1,4.53,2.72c-.3,3-.6,6.65-.6,10,0,1.2-.31,2.41-.31,3.32.61,7.56-.6,15.41.61,23-1.51,3,.6,9.67.3,12.69-1.21,6.95,1.51,13.6,0,20.25-.3,1.81.6,3.32.91,5.14a34,34,0,0,0-.91,12.39c0,7.55.6,15.11-.3,22.66-.3,3-.61,6.05.3,9.07.6,4.23,0,8.46-.6,12.39a4.29,4.29,0,0,0,1.2,4.23c-2.41,3.33.91,6.95-.9,10.58-5.14,1.81-10.58.3-15.41.9-5.45-2.11-5.75-7.25-7.56-11.78-3.63,2.42-5.44,6.34-9.07,9.06a22,22,0,0,1-12.08,4.54c-3,1.21-6.65.6-11.49.9-4.83,0-11.48-2.41-16-3.32a39,39,0,0,1-18.73-10.88c-4.84-4.53-7.26-10.88-8.46-17.23-.91-5.13-.61-10.27-.61-15.41-.3-6.34.61-13-.3-19.64-.61-4.84.3-10,0-15.11-.3-4.23,0-8.77-.91-13.3-.9-3.93-.3-8.46-.3-12.69,0-5.74.3-11.49-.6-16.93a9.86,9.86,0,0,1,0-3l.9-8.76c0-4.54,0-8.77.3-13.3a73,73,0,0,0-.3-16.32c-.6-4.83-1.21-10-.3-14.81.3-1.2-.3-2.72-.3-3.92,0-.91.6-.91.9-.91-.6-7.56.31-14.51,0-21.46,0-9.37.31-18.74,1.82-20.85-2.72-2.42-.91-5.44,0-7.86,2.11-4.83,3.93-9.67,7.25-13.9,5.44-6.95,15.11-14.51,24.18-16.32a69.79,69.79,0,0,1,11.18-.6,174.06,174.06,0,0,1,21.76.9c9.37.91,17.83,4.84,25.38,10.28,4.54,3.32,4.54,8.76,7.26,13.9a23.93,23.93,0,0,1,2.11,15.11c-.9,4.23-.6,8.46-.6,12.69.3,6,.3,3.33.3,9.67a4.17,4.17,0,0,1-2.12,2.42c-.6,0-2.41,1.21-2.71.91-1.82-1.21-3.93,3-6,3.32-6,1.21-16.32,11.18-22.36,11.18-2.72-.3-1.21-1.2-1.82-3.62-1.51-2.72.31-12.7-1.21-15.11,1.21-4.54.31-7.56.61-12.09a37.1,37.1,0,0,0,0-8.16c-.3-2.72-3.93-5.44-7.56-5.44s-7.25-.3-10.88.6c-2.41.91-5.13.61-7.55,2.72-2.12,2.12-1.51,5.74-1.51,8.46L1632,184c0,4.53-.3,9.06-.3,13.9-.31,5.44.6,11.18,0,16.62-.31,1.81,1.21,4.23-1.51,5.44l1.81,2.42c-1.51,3-.91,6.34-.3,9.67a88.12,88.12,0,0,1,0,15.41,17.7,17.7,0,0,0,.3,5.74c.3,6.95.91,13.91.3,20.86,0,.3-.3.9,0,.9,2.12,2.42.3,3.93-1.21,5.74Z"/><path class="cls-1" d="M1821.76,332.36a22.83,22.83,0,0,1,.91,6.35,26.15,26.15,0,0,0,.6,6.65c.91,3,.61,6.65.91,10.57l5.14,15.12,9.06,9.36a17,17,0,0,1,.31,6.95,7.83,7.83,0,0,1-1.82,1.51c-1.81,1.21-3.93.61-5.74.61-9.07.3-18.13,0-27.2,1.51-2.42-.91-4.23-2.72-6.35-3.93-4.53-2.42-6.64-6-7.85-10.57a141.55,141.55,0,0,1-3.33-15.42c-1.51-7.55-.9-15.41-2.11-22.66-1.21-6.35-.3-13-2.72-19.34a6,6,0,0,1-.3-2.42c.9-6.35-1.51-12.39-2.12-18.44-.91-5.74-1.21-13.3-7.56-16.92-2.11-1.51-4.83-.91-6.64-1.51a11.9,11.9,0,0,0-.91,2.41v44.13c0,3,.6,6,.6,9.37,0,3-.3,6-.3,9.06a29.26,29.26,0,0,0,.61,7.56c.6,2.42-1.21,4.23.3,6.65.91,1.51.6,3.92,0,5.74-1.81,6.95-.91,16.62.3,23.57-1.51,3.93-5.74,1.51-8.76,3-6.65-.6-19.34,0-24.48,1.21a8.28,8.28,0,0,1-5.14-4.23l-.6-16.92c-.31-7.86-.31-16-.91-24.18,0-1.51-.61-3.32.3-4.83.3-.61.61-1.21.3-1.52-1.81-9.67.91-19,.61-28.71-.3-9.06,0-18.43,0-27.8,0-1.51.3-3-.91-4.53-2.42-.61-5.74,1.21-9.07-1.82a20.49,20.49,0,0,0-1.81-3.92,49.33,49.33,0,0,0-2.72-14.81c-1.51-4.84-.6-10-2.72-14.51a4.88,4.88,0,0,1,4.23-3h7c2.12-.3,4.54.3,6.65-.6a5.23,5.23,0,0,0,.61-1.52c0-3.62-.31-7.25,0-10.88a10,10,0,0,0,0-4.23c-.91-4.23-1.51-7.25-.91-10.57.6-3.93.91-7.86,1.21-11.79.3-1.51.91-2.72,1.21-4.53-2.42-3.33-.61-7.86-2.42-11.79,2.72-7.86.3-16,.91-24.18.6-7.55-.31-15.41-1.21-23.57l2.11-5.74a4.34,4.34,0,0,1,1.82-.6,279.14,279.14,0,0,1,35.66,0,20.11,20.11,0,0,1,7.25.9c3,.61,6.35.3,9.37.3,3.63,0,7.25-.3,10.88,1.21a18.72,18.72,0,0,0,4.23.3c7.86.91,14.81,3,19.64,10,.91,1.21,2.12,1.81,3.33,3l5.74,13.3v37.77a36.66,36.66,0,0,0,0,5.74,26.48,26.48,0,0,1,.3,8.47,25.74,25.74,0,0,0,.61,4.83,71,71,0,0,1,.3,21.16c-1.51,13-7.86,22.66-20.55,27.5-1.21.3-2.42,1.21-4.23,2.11,8.76,3,12.39,9.37,13.6,17.53l1.21,6.65c.9,3,2.11,6,1.81,9.07-.61,3,.3,6,.3,9.06-.3,1.82-.3,3.63.91,5.14C1820,321.79,1819.65,326.92,1821.76,332.36ZM1790,226c.91-3-.3-6,.3-9.06,1.82-9.07.91-18.44.91-27.81V187.6c-1.81-3.32-1.21-6.64-1.51-10a8.43,8.43,0,0,0-.3-2.72L1787,171l-4.23-2.42h-15.11c-2.12,0-3.93.61-4.84,2.72,1.81,3.63,1.21,7.86,1.21,11.79.3,18.13.3,36.57.3,55,0,1.21-.3,2.72,1.82,3.93h9.67a49.42,49.42,0,0,0,6.65-.3,8.58,8.58,0,0,0,5.13-2.72l2.42-3.93C1790,231.73,1789.43,228.7,1790,226Z"/><path class="cls-1" d="M1973.17,388.57c-1.21.3-2.72.61-3.32,1.51a4.75,4.75,0,0,1-6,.91c-3-1.21-6,0-8.76-.6a33.3,33.3,0,0,0-7.86,0,8,8,0,0,0-4.23,1.51c-1.21.6-2.12-.31-3.33-.31-1.81.31-1.2-1.2-1.81-2.11-3-5.44-3-12.09-4.23-17.83-.91-3.63-2.12-7.25-2.12-11.18-.6-5.44-3.62-10.58-3.32-16.32a5,5,0,0,0-1.21-3.33c-.6-.6-.6-1.21-1.21-1.21-2.11,0-4.53-.9-6.34-.3-2.72.61-3.93.3-6.65.3a54.59,54.59,0,0,0-7.26.31c-4.83.3-6.64-.61-11.18-.31-2.41.31-3.32.61-3.62,3-.61,6.34-2.12,12.69-3,19-.6,3.32-1.81,6.34-2.11,9.67-.6,3.93-1.51,7.55-1.51,11.48,0,3-1.51,5.44-3,7.86-1.2,1.51-3,.3-4.23,1.51-2.41-1.51-4.83-.91-7.25-.61-7.55.61-9.06-.6-10.27,0-3.93,0-3.93-.9-8.47,0-1.81.31-3.32.31-3.62-.9s.9-3.33.9-4.84l1.52-6.34,4.53-27.5c.3-3.93.9-7.86,1.51-11.79-3,.3-9.07.91-9.37-3a13.92,13.92,0,0,0-.6-1.51c-.61-4.23-3-8.16-2.72-12.39.3-3.93-.61-6.05-2.12-10-.6-1.51-.9-6-.9-7.25,1.2-1.81,9.06-.61,10.87-.91,3,0,6-.3,8.77-.3,0-.91.3-1.81.3-2.72l2.12-7.86.6-8.46c.61-6,1.81-12.39,3-18.73.61-1.82,1.51-3.93,1.51-6a16.28,16.28,0,0,1,.91-6.65c.3-2.11.91-4.23.6-6.65-.3-1.81.61-3.62.91-5.74.91-6.34,1.81-12.69,3.33-19,2.11-8.46,4.83-7.86,4.23-11.78a31,31,0,0,1,.9-13.91c.91-2.72.91-5.44,1.21-8.16.61-3.92,2.12-7.85,2.42-12.08.91-5.14,2.42-10,2.12-15.11,0-2.72.9-5.14,1.51-7.56,1.81-6.65,3-12.09,3.93-16.92.6-3.63,3.32-7.26,6.95-7.26a16.62,16.62,0,0,1,5.44.61c3,.6,6,0,8.76.91a2.58,2.58,0,0,0,2.12,0c3.92-.91,7.55.6,11.48.3,1.51-.3,2.72.9,4.23,1.21,1.51.6,1.51,1.51,1.51,2.72,0,4.23,2.72,9.36,3.63,13.29.9,4.84,2.41,9.37,2.41,14.21,0,1.51.91,2.72.91,4.23.61,5.13-.3,10.27.61,15.41l5.74,24.78c.91,4.23,1.21,8.77,1.81,13,.91,7.25,3,13.9,4.23,20.85,0,.6.61,1.21.3,2.11-.3,3.93.91,7.86,1.52,11.49l3,20.55c.3,3,2.42,4.83,2.11,7.86-.6,8.46,2.12,11.48,2.12,16.92a3.24,3.24,0,0,0,.3,2.42c2.42,7.55,1.81,15.41,3,23.27.91,7.85,2.12,15.71,3.33,23.87.91,5.44,2.42,10.88,3.62,16.32C1969.54,373.77,1970.75,381.32,1973.17,388.57Zm-52.28-83.71c0-1.51-1.51-2.11-1.21-3.63a43.91,43.91,0,0,0-.91-10.87c-.9-3.93-.3-8.17-1.51-12.09a62.07,62.07,0,0,1-.91-7.26c-.3-4.53-.6-8.76-1.2-13,0-4.23-.91-7.86-.91-11.79,0-5.74-2.12-23.57-3.33-29-.3-2.12,0-3.93-2.41-5.74.3,6.65-3.63,22.06-3.33,28.1,0,.31-.3,3.63-.6,3.93-2.12,3.93-.91,7-2.12,11.18-1.51,4.54-1.51,9.07-2.11,13.6-1.51,8.77-4.23,17.23-4.84,26.3-.3,3.32-1.51,6.34-1.21,10.27C1903.36,304.56,1912.12,304,1920.89,304.86Z"/><circle class="cls-1" cx="263.36" cy="261" r="193.53"/><path d="M346.86,158.77c-3.39-.42-2.22-1.92-5.94-3.62-1.83-.83-4.09-1.5-6.36-2.52-2-.9-4.24-1.59-6.37-2.52s-4.35-1.59-6.39-2.45c-2.27-.95-4.39-1.91-6.31-2.64-2.84-1.1-5-2.3-6.36-2.55a49,49,0,0,1-6.42-1.32c-1.88-.6-3.95-1.33-6.23-2-2-.59-3.92-1.9-6.14-2.43-2-.49-4.31-.55-6.53-.91s-4.27-.91-6.5-1.07-4.34.7-6.57.78c-2,.08-4.14.1-6.36.34-2.06.21-4.27-.13-6.43.2s-4.14,1.09-6.25,1.48-4.31.36-6.38.81-4,1.88-6,2.39-4.36.61-6.3,1.17c-2.24.64-4.25,1.44-6.06,2.06a39.6,39.6,0,0,0-5.79,2.59,43.75,43.75,0,0,0-5.72,3.6c-1.67,1.23-3.74,2.31-5.74,3.73-1.79,1.26-3.79,2.36-5.8,3.58a60.92,60.92,0,0,1-6,3.1c-2.08,1-4,2.27-6.19,2.85a29.82,29.82,0,0,1-6.75,1.46A24.87,24.87,0,0,1,178,164a50.68,50.68,0,0,1-5.93-1.88c-2.05-.83-3.94-1.7-5.66-2.58-1.91-1-3.38-2.58-5.18-3.45a33.36,33.36,0,0,0-5.75-2.31,25.91,25.91,0,0,0-6.12-1.23c-1.85-.08-3.86.84-6.13,1.15a55.7,55.7,0,0,0-6,1.36c-1.83.45-3.83.82-6,1.51a36.42,36.42,0,0,0-6,2.69,17,17,0,0,0-5,4,10.17,10.17,0,0,0-2.83,5.65,13.82,13.82,0,0,0,.92,6.42,27.07,27.07,0,0,0,2.93,5.9,47,47,0,0,0,3.91,5.32,55.84,55.84,0,0,0,3.85,5.14,58.68,58.68,0,0,0,4.26,4.82c1.41,1.39,3.52,2.23,5.31,3.66,1.58,1.27,3,2.94,4.88,4.15a60.85,60.85,0,0,0,5.71,2.9c1.86.91,3.52,2.5,5.6,3.25a56.12,56.12,0,0,0,6.2,1.87,61.68,61.68,0,0,0,6.38,1c2.06.25,4.25-.46,6.46-.42s4.2.51,6.41.33,4.12-.8,6.31-1.17,4.61-.79,6.77-1.33c2.33,2.45-.35,3-.58,7.17-.11,2-.13,4.25-.25,6.77-.11,2.12-.78,4.37-.88,6.75-.09,2.2,0,4.48-.13,6.78s-.19,4.53-.24,6.79.62,4.58.61,6.79c0,2.37-.58,4.65-.53,6.78.05,2.5-.32,4.82-.17,6.81.19,2.47.77,4.67,1,6.67.3,2.54.87,4.7,1.24,6.61.51,2.65.58,4.91,1.16,6.67.89,2.66,2.46,4.23,3.34,5.87a46.23,46.23,0,0,0,2.93,6c1,1.65,2.57,3.36,3.79,5.45,1.06,1.82,2.3,3.7,3.33,5.74s2.31,3.84,3.14,5.89.63,4.52,1.17,6.61,1.82,4.3,1.91,6.41a17.52,17.52,0,0,1-1.36,6.53c-.64,1.82-1.26,3.85-1.91,6-.59,1.93-1.7,3.83-2.2,5.93s-.23,4.22-.55,6.31a56.63,56.63,0,0,0-.32,6.25,43.17,43.17,0,0,0,0,6.23,32.22,32.22,0,0,0,1.09,6.14,25.93,25.93,0,0,0,2.79,5.54c1,1.75,1.83,3.73,3.39,5.25s3.41,2.16,5.31,3.31c2.29,1.38,1.35,2,3.12,4.45.92,1.29,2.38,2.55,2.81,4.51a20.47,20.47,0,0,0,1.55,5.83,22.44,22.44,0,0,0,3.63,4.84,24.86,24.86,0,0,0,4.7,3.75,33.59,33.59,0,0,0,5.4,2.59,45.57,45.57,0,0,0,5.77,1.55c1.8.45,3.57,1.82,5.71,2.13,1.86.27,3.9.36,6,.5,1.89.11,3.92-.35,6-.35s4.32-.17,6.32-.3c2.24-.14,4.31-.44,6.28-.73a57.3,57.3,0,0,0,6.22-1.07,46,46,0,0,0,6.13-1.66,33.64,33.64,0,0,0,5.61-3,30.08,30.08,0,0,0,5.06-3.9,30.84,30.84,0,0,0,3.66-5.23,42.91,42.91,0,0,0,3.32-5.45c.84-2,.75-4.28,1.41-6.25,1.11-3.13,1.26-3,3-6,1.16-2.05,2.64-4.23,4.19-5.26a11.71,11.71,0,0,0,3.91-5.09,29.62,29.62,0,0,0,2.25-6.25,38,38,0,0,0,.76-6.62,40.48,40.48,0,0,0-.65-6.63c-.32-2.07-1.33-4.08-2-6.3a46.14,46.14,0,0,0-2.4-6.11c-.95-1.95-.93-4.08-1.19-6.06a21.13,21.13,0,0,1,0-6.1c.31-2,.27-4.16,1-6.15s2.42-3.39,3.37-5.27,1.79-3.66,2.85-5.45,1.79-3.74,2.88-5.49,2.29-3.46,3.36-5.19,1.79-3.79,2.74-5.54a49.52,49.52,0,0,0,2.57-5.55c.8-2,2.11-3.8,2.33-5.73.28-2.46-.05-4.6.27-6.45.4-2.24,1.16-4.14,1.47-6.25a53.66,53.66,0,0,0,.94-6.37c.08-1.85.29-4,.21-6.44-.07-1.89-1.22-3.95-1.4-6.35-.15-1.93.54-4.13.3-6.46-.2-2-.8-4-1.07-6.34-.24-2-.81-4.07-1.1-6.33-.27-2,.17-4.22-.15-6.46-.28-2-.88-3.88-1.21-6.1,2.93-1.62,2.4.4,6.37,1.32,1.88.44,3.95,1.86,6.44,2.09,2.06.19,4.33-.81,6.71-.91,2.12-.1,4.42.45,6.71,0a45.5,45.5,0,0,0,6.47-1.83,46.1,46.1,0,0,0,5.9-3.17,47.52,47.52,0,0,0,5.54-3.65,51.26,51.26,0,0,0,5.27-4.08,58.81,58.81,0,0,0,4.71-4.75c1.45-1.72,2.59-3.59,4.12-5.19a51.85,51.85,0,0,0,4.63-4.71,42.77,42.77,0,0,0,3.39-5.65c.92-1.75,2.47-3.46,3.34-5.76.7-1.88.59-4.23,1.25-6.56.55-2,1.4-4,1.9-6.34-.42-3-1.11-2.12-3.87-4.76a36.18,36.18,0,0,0-5-3.49,40,40,0,0,0-5.47-2.62c-1.74-.75-3.4-2.1-5.53-2.68a50.07,50.07,0,0,0-6-1.27c-1.91-.28-4,0-6.15-.06-1.94-.08-4-.35-6.12-.25-1.94.08-3.92.66-6.06.92-1.94.23-4.1-.4-6.2,0-1.94.36-3.87,1.19-5.94,1.69C350.91,157.41,348.9,158.18,346.86,158.77ZM215.15,247.38a8.86,8.86,0,0,1-7.19-.71,11.94,11.94,0,0,1-4-2.76,7.62,7.62,0,0,1-2-4.4c3.42-.22,3.07,1.48,6.13,3.09a35.05,35.05,0,0,0,6.09,2.88c.87.07.91-.17,1.59.38S216,247.15,215.15,247.38Zm-7.37-13.15c1.9-.15,7.69,2.4,7.53,4a3.14,3.14,0,0,1-3.88,3,9.85,9.85,0,0,1-5.24-2.95C205.29,236.09,205.87,234.39,207.78,234.23Zm68.65,161c-1.9,0-4.24-.77-6.83-.74-2.14,0-4.45.38-6.82.37s-4.57.25-6.84.18-4.68.08-6.84-.11a51.45,51.45,0,0,1-6.78-1.07c-3-.69-5-1.67-5.73-3.1,2.92-1.41,2.6,0,6.35.27a61,61,0,0,0,6.45.14c2.15-.09,4.49.4,6.56-.06a34.22,34.22,0,0,1,6.3-1.08c2-.1,4.15.15,6.44.14,2.11,0,4.3-.89,6.47-.85s4.39.25,6.46.32c2.36.08,4.54.8,6.43.89,3.86.19,5.48-3.05,6.54,0s-2.27,1-5.93,2.18c-1.7.55-3.54,2-5.89,2.37A44.78,44.78,0,0,1,276.43,395.28Zm11.49-12.06c-2.93,1-2.56-1-6.19-1.13-1.83-.09-4,.15-6.18.08-2-.06-4.12.17-6.17.15s-4.26.28-6.16.35a36,36,0,0,0-6.08.53c-1.58.37-3.72.29-6,.53-1.92.21-3.94.82-5.92.85a37.1,37.1,0,0,1-6-.37c-2.73-.41-4.54-.85-4.86-2.25,4.63-1.18,6.1,2,9.48-1.38,2.16-2.16-4.73-.85-4.41-3.88.27-2.58,2.11-.64,4.7-.8s2.61.38,5.15-.18c3-.66,3.12-1.11,3.28-4.85.06-1.56-.72-3.47-1.93-5.88a49.16,49.16,0,0,0-3.92-4.92c-2.14-2.3-2.82-1.67-5-3.95s-1.94-2.74-2.88-5.69a6.42,6.42,0,0,1,.73-6.1,11.56,11.56,0,0,1,5.3-3.6c2.37-.59,2.33,0,5,.66a13,13,0,0,1,4.21,2.44,15.1,15.1,0,0,0,5.58,2.83,20.72,20.72,0,0,0,6.26.58c1.92-.13,3.9-1.06,6-1.7a49.89,49.89,0,0,1,6.13-1.94,17.48,17.48,0,0,1,6.51,0,5.48,5.48,0,0,1,4.37,4.74c.31,3.13.07,5.48-.8,7.17s-3.09,2.74-5.51,4.52a14.43,14.43,0,0,0-4.18,5.17c-1,2.14-1.81,4.7-1.34,6.63s2.49,3,5.35,3.56c4.52.88,6.7,1.84,8.92-1.33-2,3-6.11,2.44-4.28,5.6s4.15-2,7.56-.27S291.42,382.07,287.92,383.22ZM232.33,256c3.42-.57.83,3.29,2.49,6.76,1,2,2.33,4.09,3.33,6.12,1.34,2.73,2.81,5,3.43,6.05a43.93,43.93,0,0,1,3.32,5.69,57.58,57.58,0,0,1,2.29,6.18,54,54,0,0,1,1.18,6.48,45.26,45.26,0,0,1,1.21,6.47,47.77,47.77,0,0,1-.42,6.75c-3.26-.12-.8-2.77-2.64-6.16-.92-1.71-2.33-3.49-3.42-5.58-1-1.89-1.74-4-2.7-6s-2.78-3.69-3.6-5.53a41.34,41.34,0,0,1-2.19-6.21c-.51-2-.31-4.52-.65-7s-1-4.74-1.19-6.89C232.41,259.2,228.89,256.53,232.33,256Zm65.9,17.67c0,1.65-1.22,4-1.9,6.52a31.29,31.29,0,0,1-2.05,6.36,56,56,0,0,0-1.88,5.32c-.58,1.64-.92,3.56-1.45,5.42s-1.09,3.7-1.44,5.41a17.77,17.77,0,0,0-.49,5.46c-.94-3.06-1-2.46-1.47-6.22-.22-1.88-.34-4.08-.4-6.4,0-2.06.75-4.18,1-6.34a34,34,0,0,1,.78-6.29c.57-1.9,1.5-3.71,2.2-5.59s.64-4.16,1.39-5.93c.86-2,1.84-3.86,2.59-5.46,1.53-3.27.52-7.09,2.7-5,2.36,2.23.32,2.94.32,6.26C298.09,269.65,298.23,272.25,298.23,273.62Zm32.18-23.46c-3.6,2.26-4.41-.48-8.64-.18-1.13.09-1.25.9-.89-.76,2.83-1.91,3-1.63,6.09-3s3.08-4.08,6.34-3.05C336.94,244.29,333.45,248.26,330.41,250.16Zm-7.27-11.82c1.41-3.35,2.27-2.27,6.43-1.8,2.59,3.08,2,5.68-2.29,5.68S321.89,241.31,323.14,238.34Zm7.18-9.78c-2.15.28-4.55.56-6.39,1.87a28.63,28.63,0,0,0-4.7,4.78c-2.43,2.78-1.14,3.42-3.71,5.5-2.37.6.06-3.14,1.37-6.78-1.3-.35-1.36-.79-1.59-2.33-.24-2,2.25-3.89,4.87-5.54a38.8,38.8,0,0,1,6.71-3.67c3.36-1.07,4.51,0,6.49,3.11C334.32,227.52,332.61,228.18,330.32,228.56Zm24.7-60.7c-1.17,1.17-3.93,2.59-5.3,5.26-1,1.93-.9,4.4-.5,7.26-1.69-2-1.25-2.27-2.29-4.71s.54-5.47-2-4.6c-2.89,1-.49,2.76-1.09,5.76s1.48,4.86-1.45,5.75-2-1.89-3.86-4.15-1.08-6.23-3.46-4.53c-2.93,2.09-.67,3.45-.67,7s1.94,3.87.42,7.12c-1.65,3.52-2.13-1.77-5-5.61-1.32-1.74-3.45-3.51-4.64-6.27a22.94,22.94,0,0,0-3.46-5.78c-1.39-1.65-2.63-3.69-4.59-5.14a36.45,36.45,0,0,0-6.15-3.13,39.58,39.58,0,0,0-6.3-2.82c-2.09-.58-4.51-.12-6.91-.43a55.15,55.15,0,0,0-6.78-1c-2.39,0-4.7,0-6.92-.07-2.4-.1-4.72,0-6.91-.11-2.44-.13-4.72-.47-6.89-.52-2.49-.06-4.81-.42-6.92-.26a26,26,0,0,0-6.87,1.13,12.48,12.48,0,0,0-5.79,4.24c-1.46,4-1.32,6.9-.85,8.56,2.6-.42,2.09-1.63,4.41-2.88s4.78-4.72,5.3-2.14c.64,3.23-2.07,3-4.12,5.57s-3.48,1.67-4,4.94c-.55,3.66,2.68.88,6.83.38a19.59,19.59,0,0,0,7.12-2.17c3.41-2,2.8-5.18,6.47-3.75,3.14,1.21.55,2.86.61,6.22s-1.44,3.57.25,6.48c1.86,3.2,2.26-1.46,5.08-4.61a20.09,20.09,0,0,0,3.69-6.24,21.06,21.06,0,0,0,1.54-7.57c3-1.27,3.5.32,6.8.32s3.3-.09,6.6.06,2.42.56,6.1,2.65a37.55,37.55,0,0,1,5.31,3.95,45.24,45.24,0,0,1,4.82,4.56,57.34,57.34,0,0,1,4,5.29c1.18,1.7,3,3.18,4.19,5.25,1,1.83,1.56,4.07,2.54,6.21.87,1.92,2,3.87,2.82,6.06.74,2,1,3.78,1.64,6-4,1.78-6.78,1-8.68,2.79,1.49,2.88,3.38.66,6.18,2.55,1.69,1.14,3.79,2.88,4.46,5.12-2.62,2.2-3.29-.72-7.15,0a24.29,24.29,0,0,0-6.29,2.49,18,18,0,0,0-5.19,4.12,18.3,18.3,0,0,0-3.84,5.46,33,33,0,0,0-1.92,5.77c-.53,1.79-1.59,3.72-1.91,5.83a24.58,24.58,0,0,0-.1,6c-3.11.58-2-1.54-3.29-5.19-.56-1.65-1.63-3.69-1.53-6.22.07-1.83,1-3.88,1.64-6.22,1-3.29,1.23-2.37,3.25-6a43.18,43.18,0,0,1,3.43-5.91,42.06,42.06,0,0,1,4.41-5.13c-2.45-2.83-3.09-.06-6.94,2.61-1.7,1.18-3.42,3.42-5.31,5.68-4.44-1.08-1.14-3.09,3.61-8.08,2.19-2.57.57-1.85,4.6-4.85a62.76,62.76,0,0,1,5.52-3.88c1.69-1,3.43-1.54,5.68-2.73-2.42-1.46-2.71-.09-5.05-1.67-2.52-1.7-.24-2.22-.68-5.63-.24-1.81-.26-3.92-1.2-5.88a14.78,14.78,0,0,0-3.71-4.77,15.61,15.61,0,0,0-5.07-3.49c-1.7-.59-3.72-.46-6-.64-.78,3.4,1.94,2.76,2.89,6.3a15.4,15.4,0,0,1-.14,7.24c-3.5-1.3-1.61-3.12-4-6.45a38.34,38.34,0,0,0-5.08-5.38c-2-1.88-4-3.7-6.22-4-1.86,2.7,1.09,2.92-.47,6.65-.69,1.65-2.67,3-4.41,4.91-1.27,1.41-2.37,3.37-4.4,4.81a41.17,41.17,0,0,1-5.44,3.09c-1.66-4.29,2.23-6-1.16-9.13-2.28-2.1-3.84,6.62-5.07,3.77-1.85-4.28,2.66-4.25,2.56-8.91-.07-3.27-2.5,1.94-5.46,3.35a16.35,16.35,0,0,1-6.25,1.47,30.1,30.1,0,0,1-5.93-1.63c-3-1-5.23,1.28-6.19-1.73-1.24-3.85,1.23-4.23-.1-8.05-1-2.92-2,1.3-4.5,3.83a18.92,18.92,0,0,0-3.73,4.82,18.21,18.21,0,0,0-2.22,5.76,22.46,22.46,0,0,0,0,6.23c.3,2.18.5,4.38,1,6.46s1.38,4.19,2,6.24.81,4.34,1.41,6.38,2.05,4,2.54,6.06a47.13,47.13,0,0,1,1,6.48,27.23,27.23,0,0,1,0,6.57c-.4,2.65-1,4.72-1.22,6.42-.68,5.45,1.35,9.16-.28,6.33-1.78-3.08-1.09-2.84-3.16-6.38a52.15,52.15,0,0,0-4.15-5.83,29.69,29.69,0,0,0-5.34-4.68,14.08,14.08,0,0,0-6.21-3c-2-.35-3.79-1.23-5.47-1.43-2.17-.27-4.07-.26-5.63-.35-3.69-.23-8.1,1.45-5.92-.31,3.14-2.52,6.46.2,7.65-3.64.87-2.82-2.94-1.79-4.58-4.24-2.06-3.09-.67-2.93-.53-7.24a63.24,63.24,0,0,1,.74-7.39,40.41,40.41,0,0,1,1.36-7.34c.58-1.63,1.24-3.71,2.2-6,.75-1.78,2.36-3.39,3.46-5.44,1-1.75,1.48-3.93,2.77-5.8a63,63,0,0,1,8.9-9.18c1.5-1.38,3.22-2.57,5-3.92,1.63-1.23,2.8-3.29,4.68-4.46s4-1.37,6-2.38,3.59-2.16,5.63-3c1.89-.8,3.78-1.86,5.87-2.58s4.45-1.2,6.58-1.8c-1.34-2.95-2.87-.21-6.87.22-1.83.2-3.87,1.21-6.26,1.73-2,.41-4.32,0-6.53.67-2,.63-3.6,2.4-5.67,3.32-1.9.83-4.19,1.08-6.14,2.19a62.58,62.58,0,0,0-5.43,3.58c-1.7,1.23-3.07,3-4.73,4.46a64.15,64.15,0,0,0-4.47,4.65,63.49,63.49,0,0,0-4.29,4.83c-1.25,1.68-2.55,3.34-3.71,5.25-3-.79-.83-2.42.58-6.14a27.92,27.92,0,0,1,3.34-5.28,34.69,34.69,0,0,1,3.9-4.57c-2-2.11-2.52.25-5.38,1.76-1.59.84-2.87,2.6-4.4,3.83-1.19,1-3,2-4.94,3.26a29.31,29.31,0,0,1-5.2,2.75c-1.92.75-3.91,1.53-5.78,1.34a8.56,8.56,0,0,1-5.53-2.6,31.62,31.62,0,0,1-4.66-7.31c-1.27-2.46,2,1.1,5.17,1.64a31.46,31.46,0,0,0,5.52-.1,23,23,0,0,0,5.45-.51c1.67-.45,3.71-1.68,6.19-2.75,2-.83,4.44-.95,6.57-2s4-2.39,5.93-3.4c2.18-1.12,4.25-2.2,6-3.15,3.55-1.89,8.65-1.12,6.24-3.52-1.82-1.8-3.12.51-5.18-1-2.47-1.83,1.7-1.37,5.32-2.89,1.59-.67,3.67-1,5.88-1.84,1.76-.63,3.86-.78,6-1.44,1.84-.57,3.54-2.07,5.63-2.63,1.89-.49,4-.55,6.08-1,1.93-.42,4-.71,6-1.08s4-.51,6.09-.79,4-.56,6.08-.75,4-1.08,6.1-1.19c3.29-.11,2.14,1.07,6.52,1.59,1.81.21,4.07-.18,6.62.26,1.94.33,4.12.67,6.5,1.18,2,.42,4,1.53,6.28,2.09,2,.5,4.34.29,6.58.91,2,.57,4,1.67,6.19,2.35,2,.62,4.1,1.31,6.27,2,2,.67,4.08,1.4,6.23,2.16s4.13,1.31,6.25,2.11,4,1.75,6.07,2.58,3.91,1.91,6,2.77,4.71,1.18,6.78,2.08c.06,2.91-2.59.78-6.07,1.41a22.09,22.09,0,0,1-5.7.68,28.83,28.83,0,0,1-5.6-1.38,29.37,29.37,0,0,1-5.49-1.75c-1.89-.92-3.79-2.22-5.93-3.26-2-.95-4.43-1-6.53-2s-4.12-1.79-6.2-2.68-4.16-1.77-6.24-2.55-4.08-2.25-6.16-2.88a57.8,57.8,0,0,0-6.58-1.67,24.06,24.06,0,0,0-6.79-.13c.86,2.87,2.39.66,5.69,1.92,1.66.63,3.56,1.42,5.57,2.19,1.83.7,3.69,1.53,5.55,2.24s3.8,1.68,5.51,2.35a62.42,62.42,0,0,1,5.76,2.95c1.83,1,4.12,1.38,6.06,2.48s3.49,2.76,5.34,3.79c2,1.12,4,2.06,5.84,2.91a23.1,23.1,0,0,0,6.14,2.32c1.85.21,4-.62,6.1-.95s4.36,0,6.19-.52a13.31,13.31,0,0,0,5.16-3.25c.94-.81,4.12-1.1,7.07-1a21.34,21.34,0,0,1,7.06,1.83C359.28,166.41,357.05,165.84,355,167.86Z"/></svg>
