<svg xmlns="http://www.w3.org/2000/svg" viewBox="60 60 410 410"><defs><style>.cls-1{fill:#e41334;}</style></defs><circle class="cls-1" cx="263.36" cy="261" r="193.53"/><path d="M346.86,158.77c-3.39-.42-2.22-1.92-5.94-3.62-1.83-.83-4.09-1.5-6.36-2.52-2-.9-4.24-1.59-6.37-2.52s-4.35-1.59-6.39-2.45c-2.27-.95-4.39-1.91-6.31-2.64-2.84-1.1-5-2.3-6.36-2.55a49,49,0,0,1-6.42-1.32c-1.88-.6-3.95-1.33-6.23-2-2-.59-3.92-1.9-6.14-2.43-2-.49-4.31-.55-6.53-.91s-4.27-.91-6.5-1.07-4.34.7-6.57.78c-2,.08-4.14.1-6.36.34-2.06.21-4.27-.13-6.43.2s-4.14,1.09-6.25,1.48-4.31.36-6.38.81-4,1.88-6,2.39-4.36.61-6.3,1.17c-2.24.64-4.25,1.44-6.06,2.06a39.6,39.6,0,0,0-5.79,2.59,43.75,43.75,0,0,0-5.72,3.6c-1.67,1.23-3.74,2.31-5.74,3.73-1.79,1.26-3.79,2.36-5.8,3.58a60.92,60.92,0,0,1-6,3.1c-2.08,1-4,2.27-6.19,2.85a29.82,29.82,0,0,1-6.75,1.46A24.87,24.87,0,0,1,178,164a50.68,50.68,0,0,1-5.93-1.88c-2.05-.83-3.94-1.7-5.66-2.58-1.91-1-3.38-2.58-5.18-3.45a33.36,33.36,0,0,0-5.75-2.31,25.91,25.91,0,0,0-6.12-1.23c-1.85-.08-3.86.84-6.13,1.15a55.7,55.7,0,0,0-6,1.36c-1.83.45-3.83.82-6,1.51a36.42,36.42,0,0,0-6,2.69,17,17,0,0,0-5,4,10.17,10.17,0,0,0-2.83,5.65,13.82,13.82,0,0,0,.92,6.42,27.07,27.07,0,0,0,2.93,5.9,47,47,0,0,0,3.91,5.32,55.84,55.84,0,0,0,3.85,5.14,58.68,58.68,0,0,0,4.26,4.82c1.41,1.39,3.52,2.23,5.31,3.66,1.58,1.27,3,2.94,4.88,4.15a60.85,60.85,0,0,0,5.71,2.9c1.86.91,3.52,2.5,5.6,3.25a56.12,56.12,0,0,0,6.2,1.87,61.68,61.68,0,0,0,6.38,1c2.06.25,4.25-.46,6.46-.42s4.2.51,6.41.33,4.12-.8,6.31-1.17,4.61-.79,6.77-1.33c2.33,2.45-.35,3-.58,7.17-.11,2-.13,4.25-.25,6.77-.11,2.12-.78,4.37-.88,6.75-.09,2.2,0,4.48-.13,6.78s-.19,4.53-.24,6.79.62,4.58.61,6.79c0,2.37-.58,4.65-.53,6.78.05,2.5-.32,4.82-.17,6.81.19,2.47.77,4.67,1,6.67.3,2.54.87,4.7,1.24,6.61.51,2.65.58,4.91,1.16,6.67.89,2.66,2.46,4.23,3.34,5.87a46.23,46.23,0,0,0,2.93,6c1,1.65,2.57,3.36,3.79,5.45,1.06,1.82,2.3,3.7,3.33,5.74s2.31,3.84,3.14,5.89.63,4.52,1.17,6.61,1.82,4.3,1.91,6.41a17.52,17.52,0,0,1-1.36,6.53c-.64,1.82-1.26,3.85-1.91,6-.59,1.93-1.7,3.83-2.2,5.93s-.23,4.22-.55,6.31a56.63,56.63,0,0,0-.32,6.25,43.17,43.17,0,0,0,0,6.23,32.22,32.22,0,0,0,1.09,6.14,25.93,25.93,0,0,0,2.79,5.54c1,1.75,1.83,3.73,3.39,5.25s3.41,2.16,5.31,3.31c2.29,1.38,1.35,2,3.12,4.45.92,1.29,2.38,2.55,2.81,4.51a20.47,20.47,0,0,0,1.55,5.83,22.44,22.44,0,0,0,3.63,4.84,24.86,24.86,0,0,0,4.7,3.75,33.59,33.59,0,0,0,5.4,2.59,45.57,45.57,0,0,0,5.77,1.55c1.8.45,3.57,1.82,5.71,2.13,1.86.27,3.9.36,6,.5,1.89.11,3.92-.35,6-.35s4.32-.17,6.32-.3c2.24-.14,4.31-.44,6.28-.73a57.3,57.3,0,0,0,6.22-1.07,46,46,0,0,0,6.13-1.66,33.64,33.64,0,0,0,5.61-3,30.08,30.08,0,0,0,5.06-3.9,30.84,30.84,0,0,0,3.66-5.23,42.91,42.91,0,0,0,3.32-5.45c.84-2,.75-4.28,1.41-6.25,1.11-3.13,1.26-3,3-6,1.16-2.05,2.64-4.23,4.19-5.26a11.71,11.71,0,0,0,3.91-5.09,29.62,29.62,0,0,0,2.25-6.25,38,38,0,0,0,.76-6.62,40.48,40.48,0,0,0-.65-6.63c-.32-2.07-1.33-4.08-2-6.3a46.14,46.14,0,0,0-2.4-6.11c-.95-1.95-.93-4.08-1.19-6.06a21.13,21.13,0,0,1,0-6.1c.31-2,.27-4.16,1-6.15s2.42-3.39,3.37-5.27,1.79-3.66,2.85-5.45,1.79-3.74,2.88-5.49,2.29-3.46,3.36-5.19,1.79-3.79,2.74-5.54a49.52,49.52,0,0,0,2.57-5.55c.8-2,2.11-3.8,2.33-5.73.28-2.46-.05-4.6.27-6.45.4-2.24,1.16-4.14,1.47-6.25a53.66,53.66,0,0,0,.94-6.37c.08-1.85.29-4,.21-6.44-.07-1.89-1.22-3.95-1.4-6.35-.15-1.93.54-4.13.3-6.46-.2-2-.8-4-1.07-6.34-.24-2-.81-4.07-1.1-6.33-.27-2,.17-4.22-.15-6.46-.28-2-.88-3.88-1.21-6.1,2.93-1.62,2.4.4,6.37,1.32,1.88.44,3.95,1.86,6.44,2.09,2.06.19,4.33-.81,6.71-.91,2.12-.1,4.42.45,6.71,0a45.5,45.5,0,0,0,6.47-1.83,46.1,46.1,0,0,0,5.9-3.17,47.52,47.52,0,0,0,5.54-3.65,51.26,51.26,0,0,0,5.27-4.08,58.81,58.81,0,0,0,4.71-4.75c1.45-1.72,2.59-3.59,4.12-5.19a51.85,51.85,0,0,0,4.63-4.71,42.77,42.77,0,0,0,3.39-5.65c.92-1.75,2.47-3.46,3.34-5.76.7-1.88.59-4.23,1.25-6.56.55-2,1.4-4,1.9-6.34-.42-3-1.11-2.12-3.87-4.76a36.18,36.18,0,0,0-5-3.49,40,40,0,0,0-5.47-2.62c-1.74-.75-3.4-2.1-5.53-2.68a50.07,50.07,0,0,0-6-1.27c-1.91-.28-4,0-6.15-.06-1.94-.08-4-.35-6.12-.25-1.94.08-3.92.66-6.06.92-1.94.23-4.1-.4-6.2,0-1.94.36-3.87,1.19-5.94,1.69C350.91,157.41,348.9,158.18,346.86,158.77ZM215.15,247.38a8.86,8.86,0,0,1-7.19-.71,11.94,11.94,0,0,1-4-2.76,7.62,7.62,0,0,1-2-4.4c3.42-.22,3.07,1.48,6.13,3.09a35.05,35.05,0,0,0,6.09,2.88c.87.07.91-.17,1.59.38S216,247.15,215.15,247.38Zm-7.37-13.15c1.9-.15,7.69,2.4,7.53,4a3.14,3.14,0,0,1-3.88,3,9.85,9.85,0,0,1-5.24-2.95C205.29,236.09,205.87,234.39,207.78,234.23Zm68.65,161c-1.9,0-4.24-.77-6.83-.74-2.14,0-4.45.38-6.82.37s-4.57.25-6.84.18-4.68.08-6.84-.11a51.45,51.45,0,0,1-6.78-1.07c-3-.69-5-1.67-5.73-3.1,2.92-1.41,2.6,0,6.35.27a61,61,0,0,0,6.45.14c2.15-.09,4.49.4,6.56-.06a34.22,34.22,0,0,1,6.3-1.08c2-.1,4.15.15,6.44.14,2.11,0,4.3-.89,6.47-.85s4.39.25,6.46.32c2.36.08,4.54.8,6.43.89,3.86.19,5.48-3.05,6.54,0s-2.27,1-5.93,2.18c-1.7.55-3.54,2-5.89,2.37A44.78,44.78,0,0,1,276.43,395.28Zm11.49-12.06c-2.93,1-2.56-1-6.19-1.13-1.83-.09-4,.15-6.18.08-2-.06-4.12.17-6.17.15s-4.26.28-6.16.35a36,36,0,0,0-6.08.53c-1.58.37-3.72.29-6,.53-1.92.21-3.94.82-5.92.85a37.1,37.1,0,0,1-6-.37c-2.73-.41-4.54-.85-4.86-2.25,4.63-1.18,6.1,2,9.48-1.38,2.16-2.16-4.73-.85-4.41-3.88.27-2.58,2.11-.64,4.7-.8s2.61.38,5.15-.18c3-.66,3.12-1.11,3.28-4.85.06-1.56-.72-3.47-1.93-5.88a49.16,49.16,0,0,0-3.92-4.92c-2.14-2.3-2.82-1.67-5-3.95s-1.94-2.74-2.88-5.69a6.42,6.42,0,0,1,.73-6.1,11.56,11.56,0,0,1,5.3-3.6c2.37-.59,2.33,0,5,.66a13,13,0,0,1,4.21,2.44,15.1,15.1,0,0,0,5.58,2.83,20.72,20.72,0,0,0,6.26.58c1.92-.13,3.9-1.06,6-1.7a49.89,49.89,0,0,1,6.13-1.94,17.48,17.48,0,0,1,6.51,0,5.48,5.48,0,0,1,4.37,4.74c.31,3.13.07,5.48-.8,7.17s-3.09,2.74-5.51,4.52a14.43,14.43,0,0,0-4.18,5.17c-1,2.14-1.81,4.7-1.34,6.63s2.49,3,5.35,3.56c4.52.88,6.7,1.84,8.92-1.33-2,3-6.11,2.44-4.28,5.6s4.15-2,7.56-.27S291.42,382.07,287.92,383.22ZM232.33,256c3.42-.57.83,3.29,2.49,6.76,1,2,2.33,4.09,3.33,6.12,1.34,2.73,2.81,5,3.43,6.05a43.93,43.93,0,0,1,3.32,5.69,57.58,57.58,0,0,1,2.29,6.18,54,54,0,0,1,1.18,6.48,45.26,45.26,0,0,1,1.21,6.47,47.77,47.77,0,0,1-.42,6.75c-3.26-.12-.8-2.77-2.64-6.16-.92-1.71-2.33-3.49-3.42-5.58-1-1.89-1.74-4-2.7-6s-2.78-3.69-3.6-5.53a41.34,41.34,0,0,1-2.19-6.21c-.51-2-.31-4.52-.65-7s-1-4.74-1.19-6.89C232.41,259.2,228.89,256.53,232.33,256Zm65.9,17.67c0,1.65-1.22,4-1.9,6.52a31.29,31.29,0,0,1-2.05,6.36,56,56,0,0,0-1.88,5.32c-.58,1.64-.92,3.56-1.45,5.42s-1.09,3.7-1.44,5.41a17.77,17.77,0,0,0-.49,5.46c-.94-3.06-1-2.46-1.47-6.22-.22-1.88-.34-4.08-.4-6.4,0-2.06.75-4.18,1-6.34a34,34,0,0,1,.78-6.29c.57-1.9,1.5-3.71,2.2-5.59s.64-4.16,1.39-5.93c.86-2,1.84-3.86,2.59-5.46,1.53-3.27.52-7.09,2.7-5,2.36,2.23.32,2.94.32,6.26C298.09,269.65,298.23,272.25,298.23,273.62Zm32.18-23.46c-3.6,2.26-4.41-.48-8.64-.18-1.13.09-1.25.9-.89-.76,2.83-1.91,3-1.63,6.09-3s3.08-4.08,6.34-3.05C336.94,244.29,333.45,248.26,330.41,250.16Zm-7.27-11.82c1.41-3.35,2.27-2.27,6.43-1.8,2.59,3.08,2,5.68-2.29,5.68S321.89,241.31,323.14,238.34Zm7.18-9.78c-2.15.28-4.55.56-6.39,1.87a28.63,28.63,0,0,0-4.7,4.78c-2.43,2.78-1.14,3.42-3.71,5.5-2.37.6.06-3.14,1.37-6.78-1.3-.35-1.36-.79-1.59-2.33-.24-2,2.25-3.89,4.87-5.54a38.8,38.8,0,0,1,6.71-3.67c3.36-1.07,4.51,0,6.49,3.11C334.32,227.52,332.61,228.18,330.32,228.56Zm24.7-60.7c-1.17,1.17-3.93,2.59-5.3,5.26-1,1.93-.9,4.4-.5,7.26-1.69-2-1.25-2.27-2.29-4.71s.54-5.47-2-4.6c-2.89,1-.49,2.76-1.09,5.76s1.48,4.86-1.45,5.75-2-1.89-3.86-4.15-1.08-6.23-3.46-4.53c-2.93,2.09-.67,3.45-.67,7s1.94,3.87.42,7.12c-1.65,3.52-2.13-1.77-5-5.61-1.32-1.74-3.45-3.51-4.64-6.27a22.94,22.94,0,0,0-3.46-5.78c-1.39-1.65-2.63-3.69-4.59-5.14a36.45,36.45,0,0,0-6.15-3.13,39.58,39.58,0,0,0-6.3-2.82c-2.09-.58-4.51-.12-6.91-.43a55.15,55.15,0,0,0-6.78-1c-2.39,0-4.7,0-6.92-.07-2.4-.1-4.72,0-6.91-.11-2.44-.13-4.72-.47-6.89-.52-2.49-.06-4.81-.42-6.92-.26a26,26,0,0,0-6.87,1.13,12.48,12.48,0,0,0-5.79,4.24c-1.46,4-1.32,6.9-.85,8.56,2.6-.42,2.09-1.63,4.41-2.88s4.78-4.72,5.3-2.14c.64,3.23-2.07,3-4.12,5.57s-3.48,1.67-4,4.94c-.55,3.66,2.68.88,6.83.38a19.59,19.59,0,0,0,7.12-2.17c3.41-2,2.8-5.18,6.47-3.75,3.14,1.21.55,2.86.61,6.22s-1.44,3.57.25,6.48c1.86,3.2,2.26-1.46,5.08-4.61a20.09,20.09,0,0,0,3.69-6.24,21.06,21.06,0,0,0,1.54-7.57c3-1.27,3.5.32,6.8.32s3.3-.09,6.6.06,2.42.56,6.1,2.65a37.55,37.55,0,0,1,5.31,3.95,45.24,45.24,0,0,1,4.82,4.56,57.34,57.34,0,0,1,4,5.29c1.18,1.7,3,3.18,4.19,5.25,1,1.83,1.56,4.07,2.54,6.21.87,1.92,2,3.87,2.82,6.06.74,2,1,3.78,1.64,6-4,1.78-6.78,1-8.68,2.79,1.49,2.88,3.38.66,6.18,2.55,1.69,1.14,3.79,2.88,4.46,5.12-2.62,2.2-3.29-.72-7.15,0a24.29,24.29,0,0,0-6.29,2.49,18,18,0,0,0-5.19,4.12,18.3,18.3,0,0,0-3.84,5.46,33,33,0,0,0-1.92,5.77c-.53,1.79-1.59,3.72-1.91,5.83a24.58,24.58,0,0,0-.1,6c-3.11.58-2-1.54-3.29-5.19-.56-1.65-1.63-3.69-1.53-6.22.07-1.83,1-3.88,1.64-6.22,1-3.29,1.23-2.37,3.25-6a43.18,43.18,0,0,1,3.43-5.91,42.06,42.06,0,0,1,4.41-5.13c-2.45-2.83-3.09-.06-6.94,2.61-1.7,1.18-3.42,3.42-5.31,5.68-4.44-1.08-1.14-3.09,3.61-8.08,2.19-2.57.57-1.85,4.6-4.85a62.76,62.76,0,0,1,5.52-3.88c1.69-1,3.43-1.54,5.68-2.73-2.42-1.46-2.71-.09-5.05-1.67-2.52-1.7-.24-2.22-.68-5.63-.24-1.81-.26-3.92-1.2-5.88a14.78,14.78,0,0,0-3.71-4.77,15.61,15.61,0,0,0-5.07-3.49c-1.7-.59-3.72-.46-6-.64-.78,3.4,1.94,2.76,2.89,6.3a15.4,15.4,0,0,1-.14,7.24c-3.5-1.3-1.61-3.12-4-6.45a38.34,38.34,0,0,0-5.08-5.38c-2-1.88-4-3.7-6.22-4-1.86,2.7,1.09,2.92-.47,6.65-.69,1.65-2.67,3-4.41,4.91-1.27,1.41-2.37,3.37-4.4,4.81a41.17,41.17,0,0,1-5.44,3.09c-1.66-4.29,2.23-6-1.16-9.13-2.28-2.1-3.84,6.62-5.07,3.77-1.85-4.28,2.66-4.25,2.56-8.91-.07-3.27-2.5,1.94-5.46,3.35a16.35,16.35,0,0,1-6.25,1.47,30.1,30.1,0,0,1-5.93-1.63c-3-1-5.23,1.28-6.19-1.73-1.24-3.85,1.23-4.23-.1-8.05-1-2.92-2,1.3-4.5,3.83a18.92,18.92,0,0,0-3.73,4.82,18.21,18.21,0,0,0-2.22,5.76,22.46,22.46,0,0,0,0,6.23c.3,2.18.5,4.38,1,6.46s1.38,4.19,2,6.24.81,4.34,1.41,6.38,2.05,4,2.54,6.06a47.13,47.13,0,0,1,1,6.48,27.23,27.23,0,0,1,0,6.57c-.4,2.65-1,4.72-1.22,6.42-.68,5.45,1.35,9.16-.28,6.33-1.78-3.08-1.09-2.84-3.16-6.38a52.15,52.15,0,0,0-4.15-5.83,29.69,29.69,0,0,0-5.34-4.68,14.08,14.08,0,0,0-6.21-3c-2-.35-3.79-1.23-5.47-1.43-2.17-.27-4.07-.26-5.63-.35-3.69-.23-8.1,1.45-5.92-.31,3.14-2.52,6.46.2,7.65-3.64.87-2.82-2.94-1.79-4.58-4.24-2.06-3.09-.67-2.93-.53-7.24a63.24,63.24,0,0,1,.74-7.39,40.41,40.41,0,0,1,1.36-7.34c.58-1.63,1.24-3.71,2.2-6,.75-1.78,2.36-3.39,3.46-5.44,1-1.75,1.48-3.93,2.77-5.8a63,63,0,0,1,8.9-9.18c1.5-1.38,3.22-2.57,5-3.92,1.63-1.23,2.8-3.29,4.68-4.46s4-1.37,6-2.38,3.59-2.16,5.63-3c1.89-.8,3.78-1.86,5.87-2.58s4.45-1.2,6.58-1.8c-1.34-2.95-2.87-.21-6.87.22-1.83.2-3.87,1.21-6.26,1.73-2,.41-4.32,0-6.53.67-2,.63-3.6,2.4-5.67,3.32-1.9.83-4.19,1.08-6.14,2.19a62.58,62.58,0,0,0-5.43,3.58c-1.7,1.23-3.07,3-4.73,4.46a64.15,64.15,0,0,0-4.47,4.65,63.49,63.49,0,0,0-4.29,4.83c-1.25,1.68-2.55,3.34-3.71,5.25-3-.79-.83-2.42.58-6.14a27.92,27.92,0,0,1,3.34-5.28,34.69,34.69,0,0,1,3.9-4.57c-2-2.11-2.52.25-5.38,1.76-1.59.84-2.87,2.6-4.4,3.83-1.19,1-3,2-4.94,3.26a29.31,29.31,0,0,1-5.2,2.75c-1.92.75-3.91,1.53-5.78,1.34a8.56,8.56,0,0,1-5.53-2.6,31.62,31.62,0,0,1-4.66-7.31c-1.27-2.46,2,1.1,5.17,1.64a31.46,31.46,0,0,0,5.52-.1,23,23,0,0,0,5.45-.51c1.67-.45,3.71-1.68,6.19-2.75,2-.83,4.44-.95,6.57-2s4-2.39,5.93-3.4c2.18-1.12,4.25-2.2,6-3.15,3.55-1.89,8.65-1.12,6.24-3.52-1.82-1.8-3.12.51-5.18-1-2.47-1.83,1.7-1.37,5.32-2.89,1.59-.67,3.67-1,5.88-1.84,1.76-.63,3.86-.78,6-1.44,1.84-.57,3.54-2.07,5.63-2.63,1.89-.49,4-.55,6.08-1,1.93-.42,4-.71,6-1.08s4-.51,6.09-.79,4-.56,6.08-.75,4-1.08,6.1-1.19c3.29-.11,2.14,1.07,6.52,1.59,1.81.21,4.07-.18,6.62.26,1.94.33,4.12.67,6.5,1.18,2,.42,4,1.53,6.28,2.09,2,.5,4.34.29,6.58.91,2,.57,4,1.67,6.19,2.35,2,.62,4.1,1.31,6.27,2,2,.67,4.08,1.4,6.23,2.16s4.13,1.31,6.25,2.11,4,1.75,6.07,2.58,3.91,1.91,6,2.77,4.71,1.18,6.78,2.08c.06,2.91-2.59.78-6.07,1.41a22.09,22.09,0,0,1-5.7.68,28.83,28.83,0,0,1-5.6-1.38,29.37,29.37,0,0,1-5.49-1.75c-1.89-.92-3.79-2.22-5.93-3.26-2-.95-4.43-1-6.53-2s-4.12-1.79-6.2-2.68-4.16-1.77-6.24-2.55-4.08-2.25-6.16-2.88a57.8,57.8,0,0,0-6.58-1.67,24.06,24.06,0,0,0-6.79-.13c.86,2.87,2.39.66,5.69,1.92,1.66.63,3.56,1.42,5.57,2.19,1.83.7,3.69,1.53,5.55,2.24s3.8,1.68,5.51,2.35a62.42,62.42,0,0,1,5.76,2.95c1.83,1,4.12,1.38,6.06,2.48s3.49,2.76,5.34,3.79c2,1.12,4,2.06,5.84,2.91a23.1,23.1,0,0,0,6.14,2.32c1.85.21,4-.62,6.1-.95s4.36,0,6.19-.52a13.31,13.31,0,0,0,5.16-3.25c.94-.81,4.12-1.1,7.07-1a21.34,21.34,0,0,1,7.06,1.83C359.28,166.41,357.05,165.84,355,167.86Z"/></svg>
